<svg xmlns="http://www.w3.org/2000/svg" xmlns:xlink="http://www.w3.org/1999/xlink" contentStyleType="text/css" height="288.6px" preserveAspectRatio="none" style="width:1054px;height:288px;background:#FFFFFF;" version="1.1" viewBox="0 0 1054 288" width="1054.2px" zoomAndPan="magnify"><title>J.A.R.V.I.S. System Architecture (Component View)</title><defs/><g><text fill="#000000" font-family="sans-serif" font-size="8.4" font-weight="bold" lengthAdjust="spacing" textLength="213.3551" x="416.5086" y="14.1211">J.A.R.V.I.S. System Architecture (Component View)</text><!--cluster Client Device--><g id="cluster_Client Device"><rect fill="none" height="71.4" rx="1.5" ry="1.5" style="stroke:#181818;stroke-width:0.6;" width="87.51" x="4.2" y="96.293"/><text fill="#000000" font-family="sans-serif" font-size="8.4" font-style="italic" lengthAdjust="spacing" textLength="30.1342" x="32.8879" y="105.6141">&#171;Node&#187;</text><text fill="#000000" font-family="sans-serif" font-size="8.4" font-weight="bold" lengthAdjust="spacing" textLength="56.7492" x="19.5804" y="115.507">Client Device</text></g><!--cluster Flask Server--><g id="cluster_Flask Server"><polygon fill="#F5DEB3" points="162.51,32.093,168.51,26.093,938.028,26.093,938.028,272.693,932.028,278.693,162.51,278.693,162.51,32.093" style="stroke:#181818;stroke-width:0.6;"/><line style="stroke:#181818;stroke-width:0.6;" x1="932.028" x2="938.028" y1="32.093" y2="26.093"/><line style="stroke:#181818;stroke-width:0.6;" x1="162.51" x2="932.028" y1="32.093" y2="32.093"/><line style="stroke:#181818;stroke-width:0.6;" x1="932.028" x2="932.028" y1="32.093" y2="278.693"/><text fill="#000000" font-family="sans-serif" font-size="8.4" font-style="italic" lengthAdjust="spacing" textLength="53.8822" x="520.9279" y="42.0141">&#171;Framework&#187;</text><text fill="#000000" font-family="sans-serif" font-size="8.4" font-weight="bold" lengthAdjust="spacing" textLength="52.5902" x="521.5739" y="51.907">Flask Server</text></g><!--cluster Audio Pipeline--><g id="cluster_Audio Pipeline"><rect fill="none" height="70.8" rx="1.5" ry="1.5" style="stroke:#181818;stroke-width:0.6;" width="497.604" x="294.87" y="64.493"/><text fill="#000000" font-family="sans-serif" font-size="8.4" font-weight="bold" lengthAdjust="spacing" textLength="62.4053" x="512.4694" y="73.8141">Audio Pipeline</text></g><!--cluster Conversational Core--><g id="cluster_Conversational Core"><rect fill="none" height="114.6" rx="1.5" ry="1.5" style="stroke:#181818;stroke-width:0.6;" width="353.448" x="570.18" y="149.693"/><text fill="#000000" font-family="sans-serif" font-size="8.4" font-weight="bold" lengthAdjust="spacing" textLength="87.8227" x="702.9927" y="159.0141">Conversational Core</text></g><!--cluster LLM Back-ends--><g id="cluster_LLM Back-ends"><path d="M967.8484,152.2597 C970.3679,149.0428 974.0879,148.7969 975.8253,153.0904 C977.9713,147.926 982.5378,147.6227 985.4642,152.3283 C987.6772,148.3081 990.7587,148.3608 992.918,152.3781 C994.8334,147.8213 999.0036,147.5285 1001.915,151.3025 C1004.4368,147.9069 1008.6257,147.4698 1010.2599,152.2126 C1013.0658,147.1133 1016.4868,147.3329 1019.5164,152.0006 C1022.7198,147.579 1026.5063,147.3677 1028.9534,152.7302 C1034.1166,147.8964 1038.6015,150.5229 1040.49,156.293 C1040.919,156.5358 1040.867,156.919 1040.5129,157.182 C1044.1365,158.7839 1045.0331,161.7308 1041.6349,164.421 C1046.1915,166.3193 1046.1507,169.5616 1042.6488,172.4745 C1047.3308,173.7935 1047.3507,177.5433 1044.4514,180.5538 C1049.0648,183.4295 1049.256,186.2879 1045.2289,189.8837 C1048.2854,191.974 1048.9883,194.0994 1045.6866,196.6216 C1049.8172,198.8467 1050.5723,201.4271 1046.8698,204.7871 C1050.2867,207.454 1050.2453,211.273 1045.7414,212.8284 C1049.3442,215.2741 1049.0846,219.1261 1044.9178,220.7656 C1048.1643,223.9378 1047.9894,226.722 1043.858,228.9373 C1048.1485,231.6051 1047.579,235.5224 1043.0896,237.3922 C1045.8107,239.8792 1045.6778,243.4752 1041.8845,244.9192 C1046.9297,251.3637 1043.6447,256.347 1036.29,257.093 C1037.1043,257.1431 1037.4724,257.7609 1037.0907,258.4944 C1033.7813,262.3387 1030.9467,263.0972 1027.782,258.3378 C1025.5118,262.4457 1022.3002,262.1536 1019.4716,258.9747 C1015.8572,263.0154 1013.1095,262.253 1010.525,257.8796 C1008.4395,261.5973 1005.0984,261.3268 1002.6624,258.2876 C1000.3266,261.7626 996.6223,262.0295 994.2244,258.3609 C991.4708,262.677 986.8652,261.8358 984.5896,257.8089 C982.5124,262.2464 979.4878,261.7571 976.559,258.7245 C969.4463,262.6552 964.2432,262.0951 962.628,252.893 C963.3591,252.8101 963.782,253.3032 963.4546,254.0063 C959.532,252.6503 959.0484,248.63 961.9616,245.9993 C958.2118,243.4962 957.1673,241.0873 961.2119,237.8658 C957.7774,235.1827 957.7072,232.8185 961.2552,230.1747 C956.9224,228.3968 956.0564,224.5607 959.5627,221.2896 C955.2891,219.1095 955.7436,215.7452 959.4373,213.4378 C955.1546,211.0889 953.7744,208.6581 957.9495,204.8448 C955.1305,201.7992 955.6572,198.81 959.5464,197.158 C955.4664,194.0895 956.1629,191.2989 959.9427,188.594 C957.3235,186.436 957.4601,183.2562 960.7962,181.8521 C957.6657,179.3714 957.4273,175.6632 961.3623,173.6714 C957.7102,170.7905 958.3514,167.3666 962.2738,165.3116 C957.3072,159.4032 959.8957,153.9019 966.828,152.093 C967.2111,151.6793 967.6215,151.7173 967.8484,152.2597 " fill="none" style="stroke:#181818;stroke-width:0.6;"/><text fill="#000000" font-family="sans-serif" font-size="8.4" font-weight="bold" lengthAdjust="spacing" textLength="66.2977" x="968.4102" y="163.2141">LLM Back-ends</text></g><!--entity UI / XR App--><g id="elem_UI / XR App"><rect fill="#87CEFA" height="31.7859" rx="1.5" ry="1.5" style="stroke:#181818;stroke-width:0.3;" width="68.3104" x="13.8" y="126.599"/><text fill="#000000" font-family="sans-serif" font-size="8.4" font-style="italic" lengthAdjust="spacing" textLength="56.3104" x="19.8" y="140.7201">&#171;Component&#187;</text><text fill="#000000" font-family="sans-serif" font-size="8.4" lengthAdjust="spacing" textLength="47.5576" x="24.1764" y="150.613">UI / XR App</text></g><!--entity Upload Endpoint--><g id="elem_Upload Endpoint"><rect fill="#FFFFFF" height="31.7859" rx="1.5" ry="1.5" style="stroke:#181818;stroke-width:0.3;" width="79.5609" x="172.11" y="94.799"/><text fill="#000000" font-family="sans-serif" font-size="8.4" font-style="italic" lengthAdjust="spacing" textLength="28.5018" x="197.6396" y="108.9201">&#171;REST&#187;</text><text fill="#000000" font-family="sans-serif" font-size="8.4" lengthAdjust="spacing" textLength="67.5609" x="178.11" y="118.813">Upload Endpoint</text></g><!--entity Chat Endpoint--><g id="elem_Chat Endpoint"><rect fill="#FFFFFF" height="31.7859" rx="1.5" ry="1.5" style="stroke:#181818;stroke-width:0.3;" width="69.7459" x="425.142" y="156.599"/><text fill="#000000" font-family="sans-serif" font-size="8.4" font-style="italic" lengthAdjust="spacing" textLength="28.5018" x="445.7641" y="170.7201">&#171;REST&#187;</text><text fill="#000000" font-family="sans-serif" font-size="8.4" lengthAdjust="spacing" textLength="57.7459" x="431.142" y="180.613">Chat Endpoint</text></g><!--entity AudioProcessor--><g id="elem_AudioProcessor"><rect fill="#FFFFFF" height="31.7859" rx="1.5" ry="1.5" style="stroke:#181818;stroke-width:0.3;" width="75.2666" x="304.47" y="91.799"/><text fill="#000000" font-family="sans-serif" font-size="8.4" font-style="italic" lengthAdjust="spacing" textLength="38.8049" x="322.7009" y="105.9201">&#171;Module&#187;</text><text fill="#000000" font-family="sans-serif" font-size="8.4" lengthAdjust="spacing" textLength="63.2666" x="310.47" y="115.813">AudioProcessor</text></g><!--entity AudioAccumulator--><g id="elem_AudioAccumulator"><rect fill="#FFFFFF" height="31.7859" rx="1.5" ry="1.5" style="stroke:#181818;stroke-width:0.3;" width="87.358" x="416.34" y="89.999"/><text fill="#000000" font-family="sans-serif" font-size="8.4" font-style="italic" lengthAdjust="spacing" textLength="38.8049" x="440.6166" y="104.1201">&#171;Module&#187;</text><text fill="#000000" font-family="sans-serif" font-size="8.4" lengthAdjust="spacing" textLength="75.358" x="422.34" y="114.013">AudioAccumulator</text></g><!--entity EmotionRecognizer--><g id="elem_EmotionRecognizer"><rect fill="#FFFFFF" height="31.7859" rx="1.5" ry="1.5" style="stroke:#181818;stroke-width:0.3;" width="90.7623" x="566.094" y="89.999"/><text fill="#000000" font-family="sans-serif" font-size="8.4" font-style="italic" lengthAdjust="spacing" textLength="38.8049" x="592.0727" y="104.1201">&#171;Module&#187;</text><text fill="#000000" font-family="sans-serif" font-size="8.4" lengthAdjust="spacing" textLength="78.7623" x="572.094" y="114.013">EmotionRecognizer</text></g><!--entity EmotionMemory--><g id="elem_EmotionMemory"><rect fill="#FFFFFF" height="31.7859" rx="1.5" ry="1.5" style="stroke:#181818;stroke-width:0.3;" width="78.2402" x="704.634" y="92.999"/><text fill="#000000" font-family="sans-serif" font-size="8.4" font-style="italic" lengthAdjust="spacing" textLength="33.4482" x="727.03" y="107.1201">&#171;Cache&#187;</text><text fill="#000000" font-family="sans-serif" font-size="8.4" lengthAdjust="spacing" textLength="66.2402" x="710.634" y="117.013">EmotionMemory</text></g><!--entity ConversationManager--><g id="elem_ConversationManager"><rect fill="#FFFFFF" height="31.7859" rx="1.5" ry="1.5" style="stroke:#181818;stroke-width:0.3;" width="100.5938" x="693.456" y="223.199"/><text fill="#000000" font-family="sans-serif" font-size="8.4" font-style="italic" lengthAdjust="spacing" textLength="38.8049" x="724.3504" y="237.3201">&#171;Module&#187;</text><text fill="#000000" font-family="sans-serif" font-size="8.4" lengthAdjust="spacing" textLength="88.5938" x="699.456" y="247.213">ConversationManager</text></g><!--entity Orchestrator--><g id="elem_Orchestrator"><rect fill="#FFFFFF" height="31.7859" rx="1.5" ry="1.5" style="stroke:#181818;stroke-width:0.3;" width="63.3967" x="579.78" y="170.399"/><text fill="#000000" font-family="sans-serif" font-size="8.4" font-style="italic" lengthAdjust="spacing" textLength="37.2012" x="592.8778" y="184.5201">&#171;Service&#187;</text><text fill="#000000" font-family="sans-serif" font-size="8.4" lengthAdjust="spacing" textLength="51.3967" x="585.78" y="194.413">Orchestrator</text></g><!--entity ChatAgent (GPT)--><g id="elem_ChatAgent (GPT)"><rect fill="#FFFFFF" height="31.7859" rx="1.5" ry="1.5" style="stroke:#181818;stroke-width:0.3;" width="79.0195" x="704.244" y="170.399"/><text fill="#000000" font-family="sans-serif" font-size="8.4" font-style="italic" lengthAdjust="spacing" textLength="56.3104" x="715.5986" y="184.5201">&#171;Component&#187;</text><text fill="#000000" font-family="sans-serif" font-size="8.4" lengthAdjust="spacing" textLength="67.0195" x="710.244" y="194.413">ChatAgent (GPT)</text></g><!--entity OllamaChatAgent--><g id="elem_OllamaChatAgent"><rect fill="#FFFFFF" height="31.7859" rx="1.5" ry="1.5" style="stroke:#181818;stroke-width:0.3;" width="83.3754" x="830.652" y="170.399"/><text fill="#000000" font-family="sans-serif" font-size="8.4" font-style="italic" lengthAdjust="spacing" textLength="56.3104" x="844.1845" y="184.5201">&#171;Component&#187;</text><text fill="#000000" font-family="sans-serif" font-size="8.4" lengthAdjust="spacing" textLength="71.3754" x="836.652" y="194.413">OllamaChatAgent</text></g><!--entity OpenAI API--><g id="elem_OpenAI API"><rect fill="#D3D3D3" height="31.7859" rx="1.5" ry="1.5" style="stroke:#181818;stroke-width:0.3;" width="57.4371" x="972.84" y="220.799"/><text fill="#000000" font-family="sans-serif" font-size="8.4" font-style="italic" lengthAdjust="spacing" textLength="42.0451" x="980.536" y="234.9201">&#171;External&#187;</text><text fill="#000000" font-family="sans-serif" font-size="8.4" lengthAdjust="spacing" textLength="45.4371" x="978.84" y="244.813">OpenAI API</text></g><!--entity Ollama Server--><g id="elem_Ollama Server"><rect fill="#FFE4B5" height="31.7859" rx="1.5" ry="1.5" style="stroke:#181818;stroke-width:0.3;" width="68.2652" x="967.428" y="167.999"/><text fill="#000000" font-family="sans-serif" font-size="8.4" font-style="italic" lengthAdjust="spacing" textLength="29.8102" x="986.6555" y="182.1201">&#171;Local&#187;</text><text fill="#000000" font-family="sans-serif" font-size="8.4" lengthAdjust="spacing" textLength="56.2652" x="973.428" y="192.013">Ollama Server</text></g><!--link UI / XR App to Upload Endpoint--><g id="link_UI / XR App_Upload Endpoint"><path d="M82.272,135.905 C108.342,130.811 140.9529,124.44 168.3489,119.082 " fill="none" id="UI / XR App-to-Upload Endpoint" style="stroke:#181818;stroke-width:0.6;"/><polygon fill="#181818" points="171.882,118.391,166.1217,117.0721,168.9378,118.9668,167.0431,121.7828,171.882,118.391" style="stroke:#181818;stroke-width:0.6;"/><text fill="#000000" font-family="sans-serif" font-size="7.8" lengthAdjust="spacing" textLength="50.6238" x="101.91" y="120.748">audio chunks</text></g><!--link UI / XR App to Chat Endpoint--><g id="link_UI / XR App_Chat Endpoint"><path d="M82.35,144.959 C159.42,150.587 343.8996,164.0589 421.4856,169.7229 " fill="none" id="UI / XR App-to-Chat Endpoint" style="stroke:#181818;stroke-width:0.6;"/><polygon fill="#181818" points="425.076,169.985,419.8651,167.1982,422.084,169.7665,419.5156,171.9854,425.076,169.985" style="stroke:#181818;stroke-width:0.6;"/><text fill="#000000" font-family="sans-serif" font-size="7.8" lengthAdjust="spacing" textLength="14.964" x="270.27" y="156.646">text</text></g><!--link Upload Endpoint to AudioProcessor--><g id="link_Upload Endpoint_AudioProcessor"><path d="M251.898,109.775 C268.572,109.391 284.299,109.0251 300.721,108.6411 " fill="none" id="Upload Endpoint-to-AudioProcessor" style="stroke:#181818;stroke-width:0.6;"/><polygon fill="#181818" points="304.32,108.557,298.8654,106.2839,301.3208,108.6271,298.9776,111.0825,304.32,108.557" style="stroke:#181818;stroke-width:0.6;"/></g><!--link AudioProcessor to AudioAccumulator--><g id="link_AudioProcessor_AudioAccumulator"><path d="M379.956,107.117 C391.494,106.943 400.7104,106.8012 412.6204,106.6152 " fill="none" id="AudioProcessor-to-AudioAccumulator" style="stroke:#181818;stroke-width:0.6;"/><polygon fill="#181818" points="416.22,106.559,410.7832,104.2436,413.2204,106.6058,410.8581,109.043,416.22,106.559" style="stroke:#181818;stroke-width:0.6;"/></g><!--link AudioAccumulator to EmotionRecognizer--><g id="link_AudioAccumulator_EmotionRecognizer"><path d="M503.874,105.893 C523.296,105.893 542.604,105.893 562.23,105.893 " fill="none" id="AudioAccumulator-to-EmotionRecognizer" style="stroke:#181818;stroke-width:0.6;"/><polygon fill="#181818" points="565.83,105.893,560.43,103.493,562.83,105.893,560.43,108.293,565.83,105.893" style="stroke:#181818;stroke-width:0.6;"/><text fill="#000000" font-family="sans-serif" font-size="7.8" lengthAdjust="spacing" textLength="24.9806" x="522.6177" y="94.834">&#8805; 25 s</text><text fill="#000000" font-family="sans-serif" font-size="7.8" lengthAdjust="spacing" textLength="25.628" x="522.294" y="104.0203">trigger</text></g><!--link EmotionRecognizer to EmotionMemory--><g id="link_EmotionRecognizer_EmotionMemory"><path d="M657.006,106.919 C672.42,107.273 685.9269,107.5803 700.8129,107.9223 " fill="none" id="EmotionRecognizer-to-EmotionMemory" style="stroke:#181818;stroke-width:0.6;"/><polygon fill="#181818" points="704.412,108.005,699.0685,105.4816,701.4128,107.9361,698.9583,110.2803,704.412,108.005" style="stroke:#181818;stroke-width:0.6;"/></g><!--link Chat Endpoint to Orchestrator--><g id="link_Chat Endpoint_Orchestrator"><path d="M495.09,175.661 C520.566,178.001 551.3731,180.8275 576.0511,183.0955 " fill="none" id="Chat Endpoint-to-Orchestrator" style="stroke:#181818;stroke-width:0.6;"/><polygon fill="#181818" points="579.636,183.425,574.4783,180.5408,576.6486,183.1504,574.039,185.3207,579.636,183.425" style="stroke:#181818;stroke-width:0.6;"/></g><!--link Orchestrator to EmotionMemory--><g id="link_Orchestrator_EmotionMemory"><path d="M639.396,170.159 C661.83,156.917 690.3502,140.0756 712.7722,126.8336 " fill="none" id="Orchestrator-to-EmotionMemory" style="stroke:#181818;stroke-width:0.6;"/><polygon fill="#181818" points="715.872,125.003,710.0019,125.6825,713.2888,126.5285,712.4428,129.8155,715.872,125.003" style="stroke:#181818;stroke-width:0.6;"/></g><!--link Orchestrator to ConversationManager--><g id="link_Orchestrator_ConversationManager"><path d="M643.476,198.941 C661.35,206.141 680.583,213.8853 699.729,221.6013 " fill="none" id="Orchestrator-to-ConversationManager" style="stroke:#181818;stroke-width:0.6;"/><polygon fill="#181818" points="703.068,222.947,698.9565,218.7024,700.2855,221.8256,697.1623,223.1545,703.068,222.947" style="stroke:#181818;stroke-width:0.6;"/></g><!--link Orchestrator to ChatAgent (GPT)--><g id="link_Orchestrator_ChatAgent (GPT)"><path d="M643.476,186.293 C661.65,186.293 681.09,186.293 700.44,186.293 " fill="none" id="Orchestrator-to-ChatAgent (GPT)" style="stroke:#181818;stroke-width:0.6;"/><polygon fill="#181818" points="704.04,186.293,698.64,183.893,701.04,186.293,698.64,188.693,704.04,186.293" style="stroke:#181818;stroke-width:0.6;"/></g><!--link ChatAgent (GPT) to OllamaChatAgent--><g id="link_ChatAgent (GPT)_OllamaChatAgent"><path d="M783.438,186.293 C798.36,186.293 804.606,186.293 819.72,186.293 " fill="none" id="ChatAgent (GPT)-to-OllamaChatAgent" style="stroke:#181818;stroke-width:0.6;stroke-dasharray:7.0,7.0;"/><polygon fill="none" points="830.52,186.293,819.72,182.693,819.72,189.893,830.52,186.293" style="stroke:#181818;stroke-width:0.6;"/></g><!--link ChatAgent (GPT) to OpenAI API--><g id="link_ChatAgent (GPT)_OpenAI API"><path d="M783.534,199.697 C798.18,204.335 815.052,209.231 830.652,212.693 C880.062,223.661 935.1185,230.2628 969.1085,233.7188 " fill="none" id="ChatAgent (GPT)-to-OpenAI API" style="stroke:#181818;stroke-width:0.6;"/><polygon fill="#181818" points="972.69,234.083,967.5605,231.149,969.7054,233.7795,967.0749,235.9244,972.69,234.083" style="stroke:#181818;stroke-width:0.6;"/></g><!--link OllamaChatAgent to Ollama Server--><g id="link_OllamaChatAgent_Ollama Server"><path d="M914.148,185.519 C931.326,185.201 947.4246,184.8966 963.7086,184.5906 " fill="none" id="OllamaChatAgent-to-Ollama Server" style="stroke:#181818;stroke-width:0.6;"/><polygon fill="#181818" points="967.308,184.523,961.8639,182.2248,964.3085,184.5793,961.954,187.024,967.308,184.523" style="stroke:#181818;stroke-width:0.6;"/></g><!--SRC=[XPHDRXen583tFiKJtIGBfbMaRX12can9H0KD0ffMIbbOdfV1mcEFF9uajEK0FKWlrfFqUO01WcbPi83l_VbzjfDE8NoCucWItKU3Q1h1T5Kwp26sOY4T2bTPX8l4v8NHg1tSIto-P4pXemDdmCfiuI2LbaXfD6FbKkg2Mvw3sCLCtOgAU8BhJE41Kd2nv1bk00WYAJxoIhaPlhXOoKpdlWb1NsWFA6rI776RIGrNxnZRveLMegJdF-2J5DY2RlSJWRqU_6003vy7y1Q-JY0kYZdiFjrkCojnRuP-lkboTQqgP6l6V25etIXUBc6AzWcjptf3FU2piKiVycM1t565kaIX34-XhzF2IEtcsnAJ_dH6A7s8fbFsQBAWg6CmY1BRZ1TNgJGmbWKggMa-FnQbgdyUMoEmB8sTxrADJ5efF_s-wWwEXQZoId6tnS_1_TpuDKzGc4pBxrZJ_u57c1kxsa-KSB6esJsyFfegCPhEjUG-c2j8ZDsFTlZVY6lYgOLp3ToHmrWwsuorQS3lZNJOxAg1_Vd7cRVbudOykvo7R3ZChHJFUHFqJtpDJdHhjti1Eph0wusAHQMNPJZen9CEEBeSOTtgY5Swi90XU_1G1HRqesO39dJWpw_VSFKUoc_QqSD0ks5XPmupRFLWWJjGOqTBP2TR3QKAGo5rpg6lN60XFwBeP-_K0_z826Mg55h3uGYkIUeswhJS6FnmLw2E1n2F1zjxrd-XbumqRnwRMyjNh15i-yXunuT6r9Y_E2CZ12-b3ZQsERPz8HRITGCTrQ3M_m80]--></g></svg>