<svg xmlns="http://www.w3.org/2000/svg" xmlns:xlink="http://www.w3.org/1999/xlink" contentStyleType="text/css" height="735px" preserveAspectRatio="none" style="width:962px;height:735px;background:#FFFFFF;" version="1.1" viewBox="0 0 962 735" width="962px" zoomAndPan="magnify"><title>J.A.R.V.I.S. System Architecture (Component View)</title><defs/><g><text fill="#000000" font-family="sans-serif" font-size="14" font-weight="bold" lengthAdjust="spacing" textLength="355.5918" x="296.2041" y="23.5352">J.A.R.V.I.S. System Architecture (Component View)</text><!--cluster Client Side--><g id="cluster_Client Side"><rect fill="none" height="119.98" rx="2.5" ry="2.5" style="stroke:#181818;stroke-width:1.0;" width="154" x="399" y="44.4883"/><text fill="#000000" font-family="sans-serif" font-size="14" font-style="italic" lengthAdjust="spacing" textLength="50.2236" x="450.8882" y="60.0234">&#171;Node&#187;</text><text fill="#000000" font-family="sans-serif" font-size="14" font-weight="bold" lengthAdjust="spacing" textLength="76.7949" x="437.6025" y="76.5117">Client Side</text></g><!--cluster Flask Server--><g id="cluster_Flask Server"><polygon fill="#F5DEB3" points="16,206.4683,26,196.4683,945,196.4683,945,485.1383,935,495.1383,16,495.1383,16,206.4683" style="stroke:#181818;stroke-width:1.0;"/><line style="stroke:#181818;stroke-width:1.0;" x1="935" x2="945" y1="206.4683" y2="196.4683"/><line style="stroke:#181818;stroke-width:1.0;" x1="16" x2="935" y1="206.4683" y2="206.4683"/><line style="stroke:#181818;stroke-width:1.0;" x1="935" x2="935" y1="206.4683" y2="495.1383"/><text fill="#000000" font-family="sans-serif" font-size="14" font-style="italic" lengthAdjust="spacing" textLength="89.8037" x="431.5981" y="223.0034">&#171;Framework&#187;</text><text fill="#000000" font-family="sans-serif" font-size="14" font-weight="bold" lengthAdjust="spacing" textLength="87.6504" x="432.6748" y="239.4917">Flask Server</text></g><!--cluster External Services--><g id="cluster_External Services"><path d="M423.67,538.9111 C428.628,529.1097 436.8077,527.7002 444.9063,535.0145 C449.3175,524.1283 459.2693,523.8999 465.6574,532.9577 C471.2181,521.6823 480.7239,521.0937 488.2319,530.8695 C493.4286,519.3417 503.026,519.2039 509.6258,529.4936 C515.2427,519.9715 523.5561,520.3079 529.0903,529.5791 C534.507,516.7387 542.8743,516.7821 551.7618,526.0142 C558.0407,513.8897 565.1708,513.7903 574.0486,523.342 C581.9377,515.5614 590.8392,517.141 594.6897,527.8504 C598.9968,517.6697 608.5307,516.8087 613.8498,526.8937 C621.9496,516.7543 628.4458,519.1166 635.0242,528.5405 C642.9435,519.2078 652.4672,522.1082 655.4189,533.4426 C662.513,522.0815 671.8952,521.9276 678.7966,533.6378 C686.8414,526.1188 694.7,525.9887 699.7327,537.0347 C708.388,528.1235 719.6638,530.5122 724,542.1383 C725.7229,542.2471 726.1349,543.2789 725.3251,544.6985 C740.3616,551.9105 738.2679,562.6213 727.2107,571.6583 C739.6014,578.5833 739.222,587.2526 727.3201,594.2951 C742.615,601.6246 743.2984,614.7697 727.9189,622.7448 C739.5992,632.3997 737.6762,640.0339 726.5016,648.4277 C737.3114,656.1376 736.5846,665.1684 725.9929,672.4246 C736.4584,687.5662 737.2991,698.439 717,705.1183 C718.3395,704.0303 719.3787,704.4017 719.7865,706.0627 C714.1327,717.5724 703.9437,717.8905 696.0709,708.5917 C690.0011,720.5178 682.6378,719.6954 675.1282,709.9853 C670.3635,721.8223 661.6516,723.0578 654.313,712.3631 C648.3059,722.097 641.0706,723.0071 633.331,714.3386 C628.8119,724.6848 620.6272,723.3088 614.6907,715.8202 C608.3233,726.0375 600.5006,728.3315 592.5111,717.532 C587.5745,727.2164 577.2997,728.6488 571.8176,718.0895 C564.483,726.4105 557.0128,726.5036 551.4465,716.1596 C543.9303,726.2248 536.4661,725.3498 529.7752,715.2716 C524.4758,726.2126 515.1644,725.0873 509.6386,715.4936 C502.2083,722.4018 493.7033,721.442 489.9622,711.2488 C482.1499,721.9885 471.5754,720.4126 466.0192,708.829 C459.6726,718.2829 453.4741,718.7847 446.7818,709.178 C430.8761,720.7492 421.3255,715.9942 416,698.1183 C418.1596,697.3915 419.88,698.6174 419.4766,700.9917 C405.1112,693.1765 404.3086,683.4458 418.4877,674.5625 C407.2159,668.5079 402.7979,657.273 416.1751,648.9895 C405.8838,641.0456 405.5149,630.706 417.0347,623.4977 C403.7768,613.4819 405.9193,605.5575 418.4074,596.8688 C404.3052,590.7416 403.1557,578.5817 415.8981,569.9519 C401.6201,556.3184 404.1943,542.0228 423,535.1383 C424.9832,536.0005 425.3517,537.398 423.67,538.9111 " fill="none" style="stroke:#181818;stroke-width:1.0;"/><text fill="#000000" font-family="sans-serif" font-size="14" font-weight="bold" lengthAdjust="spacing" textLength="122.5068" x="508.7466" y="553.6734">External Services</text></g><!--cluster ChatGPT API--><g id="cluster_ChatGPT API"><path d="M580,580.1383 C580,570.1383 644,570.1383 644,570.1383 C644,570.1383 708,570.1383 708,580.1383 L708,679.1183 C708,689.1183 644,689.1183 644,689.1183 C644,689.1183 580,689.1183 580,679.1183 L580,580.1383 " fill="none" style="stroke:#181818;stroke-width:1.0;"/><path d="M580,580.1383 C580,590.1383 644,590.1383 644,590.1383 C644,590.1383 708,590.1383 708,580.1383 " fill="none" style="stroke:#181818;stroke-width:1.0;"/><text fill="#000000" font-family="sans-serif" font-size="14" font-weight="bold" lengthAdjust="spacing" textLength="89.9063" x="599.0469" y="605.6734">ChatGPT API</text></g><!--cluster Whisper--><g id="cluster_Whisper"><path d="M432,580.1383 C432,570.1383 494,570.1383 494,570.1383 C494,570.1383 556,570.1383 556,580.1383 L556,679.1183 C556,689.1183 494,689.1183 494,689.1183 C494,689.1183 432,689.1183 432,679.1183 L432,580.1383 " fill="none" style="stroke:#181818;stroke-width:1.0;"/><path d="M432,580.1383 C432,590.1383 494,590.1383 494,590.1383 C494,590.1383 556,590.1383 556,580.1383 " fill="none" style="stroke:#181818;stroke-width:1.0;"/><text fill="#000000" font-family="sans-serif" font-size="14" font-weight="bold" lengthAdjust="spacing" textLength="58.1602" x="464.9199" y="605.6734">Whisper</text></g><!--entity REST API Client--><g id="elem_REST API Client"><rect fill="#87CEFA" height="52.9766" rx="2.5" ry="2.5" style="stroke:#181818;stroke-width:0.5;" width="122.6279" x="414.69" y="95.4883"/><text fill="#000000" font-family="sans-serif" font-size="14" font-style="italic" lengthAdjust="spacing" textLength="93.8506" x="429.0787" y="119.0234">&#171;Component&#187;</text><text fill="#000000" font-family="sans-serif" font-size="14" lengthAdjust="spacing" textLength="102.6279" x="424.69" y="135.5117">REST API Client</text></g><!--entity AudioInteractionService--><g id="elem_AudioInteractionService"><rect fill="#FFFFFF" height="52.9766" rx="2.5" ry="2.5" style="stroke:#181818;stroke-width:0.5;" width="180.0977" x="385.95" y="305.1883"/><text fill="#000000" font-family="sans-serif" font-size="14" font-style="italic" lengthAdjust="spacing" textLength="62.002" x="444.9979" y="328.7234">&#171;Service&#187;</text><text fill="#000000" font-family="sans-serif" font-size="14" lengthAdjust="spacing" textLength="160.0977" x="395.95" y="345.2117">AudioInteractionService</text></g><!--entity AudioProcessor--><g id="elem_AudioProcessor"><rect fill="#FFFFFF" height="52.9766" rx="2.5" ry="2.5" style="stroke:#181818;stroke-width:0.5;" width="125.4443" x="40.28" y="418.1683"/><text fill="#000000" font-family="sans-serif" font-size="14" font-style="italic" lengthAdjust="spacing" textLength="64.6748" x="70.6648" y="441.7034">&#171;Module&#187;</text><text fill="#000000" font-family="sans-serif" font-size="14" lengthAdjust="spacing" textLength="105.4443" x="50.28" y="458.1917">AudioProcessor</text></g><!--entity Transcriber (Whisper)--><g id="elem_Transcriber (Whisper)"><rect fill="#FFFFFF" height="52.9766" rx="2.5" ry="2.5" style="stroke:#181818;stroke-width:0.5;" width="165.1475" x="200.43" y="418.1683"/><text fill="#000000" font-family="sans-serif" font-size="14" font-style="italic" lengthAdjust="spacing" textLength="64.6748" x="250.6663" y="441.7034">&#171;Module&#187;</text><text fill="#000000" font-family="sans-serif" font-size="14" lengthAdjust="spacing" textLength="145.1475" x="210.43" y="458.1917">Transcriber (Whisper)</text></g><!--entity EmotionRecognizer--><g id="elem_EmotionRecognizer"><rect fill="#FFFFFF" height="52.9766" rx="2.5" ry="2.5" style="stroke:#181818;stroke-width:0.5;" width="151.2705" x="400.36" y="418.1683"/><text fill="#000000" font-family="sans-serif" font-size="14" font-style="italic" lengthAdjust="spacing" textLength="64.6748" x="443.6579" y="441.7034">&#171;Module&#187;</text><text fill="#000000" font-family="sans-serif" font-size="14" lengthAdjust="spacing" textLength="131.2705" x="410.36" y="458.1917">EmotionRecognizer</text></g><!--entity ConversationManager--><g id="elem_ConversationManager"><rect fill="#FFFFFF" height="52.9766" rx="2.5" ry="2.5" style="stroke:#181818;stroke-width:0.5;" width="167.6563" x="586.17" y="418.1683"/><text fill="#000000" font-family="sans-serif" font-size="14" font-style="italic" lengthAdjust="spacing" textLength="64.6748" x="637.6607" y="441.7034">&#171;Module&#187;</text><text fill="#000000" font-family="sans-serif" font-size="14" lengthAdjust="spacing" textLength="147.6563" x="596.17" y="458.1917">ConversationManager</text></g><!--entity ChatAgent (GPT)--><g id="elem_ChatAgent (GPT)"><rect fill="#FFFFFF" height="52.9766" rx="2.5" ry="2.5" style="stroke:#181818;stroke-width:0.5;" width="131.6992" x="789.15" y="418.1683"/><text fill="#000000" font-family="sans-serif" font-size="14" font-style="italic" lengthAdjust="spacing" textLength="64.6748" x="822.6622" y="441.7034">&#171;Module&#187;</text><text fill="#000000" font-family="sans-serif" font-size="14" lengthAdjust="spacing" textLength="111.6992" x="799.15" y="458.1917">ChatAgent (GPT)</text></g><!--entity OpenAI API--><g id="elem_OpenAI API"><rect fill="#D3D3D3" height="52.9766" rx="2.5" ry="2.5" style="stroke:#181818;stroke-width:0.5;" width="95.7285" x="596.14" y="620.1383"/><text fill="#000000" font-family="sans-serif" font-size="14" font-style="italic" lengthAdjust="spacing" textLength="70.0752" x="608.9667" y="643.6734">&#171;External&#187;</text><text fill="#000000" font-family="sans-serif" font-size="14" lengthAdjust="spacing" textLength="75.7285" x="606.14" y="660.1617">OpenAI API</text></g><!--entity Whisper AI--><g id="elem_Whisper AI"><rect fill="#D3D3D3" height="52.9766" rx="2.5" ry="2.5" style="stroke:#181818;stroke-width:0.5;" width="92.3105" x="447.84" y="620.1383"/><text fill="#000000" font-family="sans-serif" font-size="14" font-style="italic" lengthAdjust="spacing" textLength="70.0752" x="458.9577" y="643.6734">&#171;External&#187;</text><text fill="#000000" font-family="sans-serif" font-size="14" lengthAdjust="spacing" textLength="72.3105" x="457.84" y="660.1617">Whisper AI</text></g><!--link REST API Client to Flask Server--><g id="link_REST API Client_Flask Server"><path d="M476,148.9083 C476,157.6458 476,167.8314 476,178.2233 C476,183.4192 476,188.6667 476,193.8105 C476,194.4535 476,195.0949 476,195.7343 C476,195.8942 476,190.0539 476,190.2135 " fill="none" id="REST API Client-to-Flask Server" style="stroke:#181818;stroke-width:1.0;"/><polygon fill="#181818" points="476,196.2135,480,187.2135,476,191.2135,472,187.2135,476,196.2135" style="stroke:#181818;stroke-width:1.0;"/></g><!--link Flask Server to AudioInteractionService--><g id="link_Flask Server_AudioInteractionService"><path d="M476,245.4383 C476,248.5683 476,275.0783 476,299.0283 " fill="none" id="Flask Server-to-AudioInteractionService" style="stroke:#181818;stroke-width:1.0;"/><polygon fill="#181818" points="476,305.0283,480,296.0283,476,300.0283,472,296.0283,476,305.0283" style="stroke:#181818;stroke-width:1.0;"/></g><!--link AudioInteractionService to AudioProcessor--><g id="link_AudioInteractionService_AudioProcessor"><path d="M385.74,358.3883 C327.72,375.0783 250.79,397.4783 183,418.1683 C177.42,419.8683 177.3676,419.8709 171.5676,421.6809 " fill="none" id="AudioInteractionService-to-AudioProcessor" style="stroke:#181818;stroke-width:1.0;"/><polygon fill="#181818" points="165.84,423.4683,175.623,424.6056,170.613,421.9788,173.2398,416.9688,165.84,423.4683" style="stroke:#181818;stroke-width:1.0;"/></g><!--link AudioInteractionService to Transcriber (Whisper)--><g id="link_AudioInteractionService_Transcriber (Whisper)"><path d="M431.24,358.4183 C400.28,376.2183 364.4417,396.8279 333.3917,414.6779 " fill="none" id="AudioInteractionService-to-Transcriber (Whisper)" style="stroke:#181818;stroke-width:1.0;"/><polygon fill="#181818" points="328.19,417.6683,337.9861,416.6506,332.5248,415.1763,333.999,409.7149,328.19,417.6683" style="stroke:#181818;stroke-width:1.0;"/></g><!--link AudioInteractionService to EmotionRecognizer--><g id="link_AudioInteractionService_EmotionRecognizer"><path d="M476,358.4183 C476,376.2183 476,393.8183 476,411.6683 " fill="none" id="AudioInteractionService-to-EmotionRecognizer" style="stroke:#181818;stroke-width:1.0;"/><polygon fill="#181818" points="476,417.6683,480,408.6683,476,412.6683,472,408.6683,476,417.6683" style="stroke:#181818;stroke-width:1.0;"/></g><!--link AudioInteractionService to ConversationManager--><g id="link_AudioInteractionService_ConversationManager"><path d="M521,358.4183 C552.11,376.2183 588.1617,396.8395 619.3717,414.6895 " fill="none" id="AudioInteractionService-to-ConversationManager" style="stroke:#181818;stroke-width:1.0;"/><polygon fill="#181818" points="624.58,417.6683,618.7534,409.7278,620.2397,415.1859,614.7816,416.6723,624.58,417.6683" style="stroke:#181818;stroke-width:1.0;"/></g><!--link AudioInteractionService to ChatAgent (GPT)--><g id="link_AudioInteractionService_ChatAgent (GPT)"><path d="M566.46,358.5783 C624.88,375.3783 702.5,397.8483 771,418.1683 C776.84,419.8983 777.1646,419.979 783.2446,421.809 " fill="none" id="AudioInteractionService-to-ChatAgent (GPT)" style="stroke:#181818;stroke-width:1.0;"/><polygon fill="#181818" points="788.99,423.5383,781.5248,417.1141,784.2022,422.0972,779.219,424.7746,788.99,423.5383" style="stroke:#181818;stroke-width:1.0;"/></g><!--link ChatAgent (GPT) to OpenAI API--><g id="link_ChatAgent (GPT)_OpenAI API"><path d="M827.85,471.3883 C787.44,509.6783 716.275,577.131 675.735,615.551 " fill="none" id="ChatAgent (GPT)-to-OpenAI API" style="stroke:#181818;stroke-width:1.0;"/><polygon fill="#181818" points="671.38,619.6783,680.664,616.3907,675.0092,616.2389,675.161,610.5841,671.38,619.6783" style="stroke:#181818;stroke-width:1.0;"/></g><!--link Transcriber (Whisper) to Whisper AI--><g id="link_Transcriber (Whisper)_Whisper AI"><path d="M310.15,471.3883 C350.56,509.6783 421.725,577.131 462.265,615.551 " fill="none" id="Transcriber (Whisper)-to-Whisper AI" style="stroke:#181818;stroke-width:1.0;"/><polygon fill="#181818" points="466.62,619.6783,462.839,610.5841,462.9908,616.2389,457.336,616.3907,466.62,619.6783" style="stroke:#181818;stroke-width:1.0;"/></g><!--SRC=[ZPB1JkCm48RlVefHzb8Ev0bGfL0LrDMoMpKLUwWu3CwGMd7io7Q0xefttt6RbXOIkZb4oUJx_nd_cQ229lYUPkaYlKzdQPv2ll61QiYSNAj0ChIEO3InTMCDcG3tYbukXF2LCWqwh47kF-LXmrwE9MXAJKT8WxB2aeQ1WfwmrM59ho7JgZHrx2JvHaw8JWt9HAjOprL12LnT_RG5ZSVmLm1VgyKqNq8sdy6EUc3WC3HJttweSXtoQdEjMn9lGXXMGtAZqLUGatic5prlU1fwiQwAajzhmh3rNsLjeUmipeCoA6kYGacANRh7dO0JE-1pPoLvRrsaxcpHwbDewT1uwTGZEHXnrJVaBWROQMrZsmL9MnhrXuOy9zRmIJn6-0uDnpP8hZ5aPSnpT3jVzlOLVR5UNevXTHpRGyHE2ZjcAB8lutnNlgTtNj2Vv7dTvrJFQ_eI_W_LXxJZ1afjsmAIwIjh36he53xPhbo10H_HnxLdBOlYNqZss_wh8PFDOYd-kBt5OSzl7MuOV3lnwO8vU7Jla9tnwDsMxQcEflXYeRVeKJC- -py0]--></g></svg>