<svg xmlns="http://www.w3.org/2000/svg" xmlns:xlink="http://www.w3.org/1999/xlink" contentStyleType="text/css" height="848px" preserveAspectRatio="none" style="width:993px;height:848px;background:#FFFFFF;" version="1.1" viewBox="0 0 993 848" width="993px" zoomAndPan="magnify"><title>J.A.R.V.I.S. System Architecture (Component View)</title><defs/><g><text fill="#000000" font-family="sans-serif" font-size="14" font-weight="bold" lengthAdjust="spacing" textLength="355.5918" x="311.7041" y="23.5352">J.A.R.V.I.S. System Architecture (Component View)</text><!--cluster Client Side--><g id="cluster_Client Side"><rect fill="none" height="119.97" rx="2.5" ry="2.5" style="stroke:#181818;stroke-width:1.0;" width="154" x="399" y="44.4883"/><text fill="#000000" font-family="sans-serif" font-size="14" font-style="italic" lengthAdjust="spacing" textLength="50.2236" x="450.8882" y="60.0234">&#171;Node&#187;</text><text fill="#000000" font-family="sans-serif" font-size="14" font-weight="bold" lengthAdjust="spacing" textLength="76.7949" x="437.6025" y="76.5117">Client Side</text></g><!--cluster Flask Server--><g id="cluster_Flask Server"><polygon fill="#F5DEB3" points="16,206.4583,26,196.4583,965,196.4583,965,598.1083,955,608.1083,16,608.1083,16,206.4583" style="stroke:#181818;stroke-width:1.0;"/><line style="stroke:#181818;stroke-width:1.0;" x1="955" x2="965" y1="206.4583" y2="196.4583"/><line style="stroke:#181818;stroke-width:1.0;" x1="16" x2="955" y1="206.4583" y2="206.4583"/><line style="stroke:#181818;stroke-width:1.0;" x1="955" x2="955" y1="206.4583" y2="608.1083"/><text fill="#000000" font-family="sans-serif" font-size="14" font-style="italic" lengthAdjust="spacing" textLength="89.8037" x="441.5981" y="222.9934">&#171;Framework&#187;</text><text fill="#000000" font-family="sans-serif" font-size="14" font-weight="bold" lengthAdjust="spacing" textLength="87.6504" x="442.6748" y="239.4817">Flask Server</text></g><!--cluster External Services--><g id="cluster_External Services"><path d="M369.67,651.8811 C374.628,642.0797 382.8077,640.6702 390.9063,647.9845 C395.3175,637.0983 405.2693,636.8699 411.6574,645.9277 C417.2181,634.6523 426.7239,634.0637 434.2319,643.8395 C439.4286,632.3117 449.026,632.1739 455.6258,642.4636 C461.2427,632.9415 469.5561,633.2779 475.0903,642.5491 C480.507,629.7087 488.8743,629.7521 497.7618,638.9842 C504.0407,626.8597 511.1708,626.7603 520.0486,636.312 C527.9377,628.5314 536.8392,630.111 540.6897,640.8204 C544.9968,630.6397 554.5307,629.7787 559.8498,639.8637 C567.9496,629.7243 574.4458,632.0866 581.0242,641.5105 C588.9435,632.1778 598.4672,635.0782 601.4189,646.4126 C608.513,635.0515 617.8952,634.8976 624.7966,646.6078 C632.8414,639.0888 640.7,638.9587 645.7327,650.0047 C654.388,641.0935 665.6638,643.4822 670,655.1083 C671.7229,655.2171 672.1349,656.2489 671.3251,657.6685 C686.3616,664.8805 684.2679,675.5913 673.2107,684.6283 C685.6014,691.5533 685.222,700.2226 673.3201,707.2651 C688.615,714.5946 689.2984,727.7397 673.9189,735.7148 C685.5992,745.3697 683.6762,753.0039 672.5016,761.3977 C683.3114,769.1076 682.5846,778.1384 671.9929,785.3946 C682.4584,800.5362 683.2991,811.409 663,818.0883 C664.3395,817.0003 665.3787,817.3717 665.7865,819.0327 C660.1327,830.5424 649.9437,830.8605 642.0709,821.5617 C636.0011,833.4878 628.6378,832.6654 621.1282,822.9553 C616.3635,834.7923 607.6516,836.0278 600.313,825.3331 C594.3059,835.067 587.0706,835.9771 579.331,827.3086 C574.8119,837.6548 566.6272,836.2788 560.6907,828.7902 C554.3233,839.0075 546.5006,841.3015 538.5111,830.502 C533.5745,840.1864 523.2997,841.6188 517.8176,831.0595 C510.483,839.3805 503.0128,839.4736 497.4465,829.1296 C489.9303,839.1948 482.4661,838.3198 475.7752,828.2416 C470.4758,839.1826 461.1644,838.0573 455.6386,828.4636 C448.2083,835.3718 439.7033,834.412 435.9622,824.2188 C428.1499,834.9585 417.5754,833.3826 412.0192,821.799 C405.6726,831.2529 399.4741,831.7547 392.7818,822.148 C376.8761,833.7192 367.3255,828.9642 362,811.0883 C364.1596,810.3615 365.88,811.5874 365.4766,813.9617 C351.1112,806.1465 350.3086,796.4158 364.4877,787.5325 C353.2159,781.4779 348.7979,770.243 362.1751,761.9595 C351.8838,754.0156 351.5149,743.676 363.0347,736.4677 C349.7768,726.4519 351.9193,718.5275 364.4074,709.8388 C350.3052,703.7116 349.1557,691.5517 361.8981,682.9219 C347.6201,669.2884 350.1943,654.9928 369,648.1083 C370.9832,648.9705 371.3517,650.368 369.67,651.8811 " fill="none" style="stroke:#181818;stroke-width:1.0;"/><text fill="#000000" font-family="sans-serif" font-size="14" font-weight="bold" lengthAdjust="spacing" textLength="122.5068" x="454.7466" y="666.6434">External Services</text></g><!--cluster ChatGPT API--><g id="cluster_ChatGPT API"><path d="M526,693.1083 C526,683.1083 590,683.1083 590,683.1083 C590,683.1083 654,683.1083 654,693.1083 L654,792.0883 C654,802.0883 590,802.0883 590,802.0883 C590,802.0883 526,802.0883 526,792.0883 L526,693.1083 " fill="none" style="stroke:#181818;stroke-width:1.0;"/><path d="M526,693.1083 C526,703.1083 590,703.1083 590,703.1083 C590,703.1083 654,703.1083 654,693.1083 " fill="none" style="stroke:#181818;stroke-width:1.0;"/><text fill="#000000" font-family="sans-serif" font-size="14" font-weight="bold" lengthAdjust="spacing" textLength="89.9063" x="545.0469" y="718.6434">ChatGPT API</text></g><!--cluster Whisper--><g id="cluster_Whisper"><path d="M378,693.1083 C378,683.1083 440,683.1083 440,683.1083 C440,683.1083 502,683.1083 502,693.1083 L502,792.0883 C502,802.0883 440,802.0883 440,802.0883 C440,802.0883 378,802.0883 378,792.0883 L378,693.1083 " fill="none" style="stroke:#181818;stroke-width:1.0;"/><path d="M378,693.1083 C378,703.1083 440,703.1083 440,703.1083 C440,703.1083 502,703.1083 502,693.1083 " fill="none" style="stroke:#181818;stroke-width:1.0;"/><text fill="#000000" font-family="sans-serif" font-size="14" font-weight="bold" lengthAdjust="spacing" textLength="58.1602" x="410.9199" y="718.6434">Whisper</text></g><!--cluster Local AI Engine--><g id="cluster_Local AI Engine"><polygon fill="#FFE4B5" points="790,687.1083,800,677.1083,976,677.1083,976,792.0883,966,802.0883,790,802.0883,790,687.1083" style="stroke:#181818;stroke-width:1.0;"/><line style="stroke:#181818;stroke-width:1.0;" x1="966" x2="976" y1="687.1083" y2="677.1083"/><line style="stroke:#181818;stroke-width:1.0;" x1="790" x2="966" y1="687.1083" y2="687.1083"/><line style="stroke:#181818;stroke-width:1.0;" x1="966" x2="966" y1="687.1083" y2="802.0883"/><text fill="#000000" font-family="sans-serif" font-size="14" font-style="italic" lengthAdjust="spacing" textLength="49.6836" x="854.1582" y="703.6434">&#171;Local&#187;</text><text fill="#000000" font-family="sans-serif" font-size="14" font-weight="bold" lengthAdjust="spacing" textLength="110.2842" x="823.8579" y="720.1317">Local AI Engine</text></g><!--entity REST API Client--><g id="elem_REST API Client"><rect fill="#87CEFA" height="52.9766" rx="2.5" ry="2.5" style="stroke:#181818;stroke-width:0.5;" width="122.6279" x="414.69" y="95.4883"/><text fill="#000000" font-family="sans-serif" font-size="14" font-style="italic" lengthAdjust="spacing" textLength="93.8506" x="429.0787" y="119.0234">&#171;Component&#187;</text><text fill="#000000" font-family="sans-serif" font-size="14" lengthAdjust="spacing" textLength="102.6279" x="424.69" y="135.5117">REST API Client</text></g><!--entity AudioInteractionService--><g id="elem_AudioInteractionService"><rect fill="#FFFFFF" height="52.9766" rx="2.5" ry="2.5" style="stroke:#181818;stroke-width:0.5;" width="180.0977" x="385.95" y="305.1783"/><text fill="#000000" font-family="sans-serif" font-size="14" font-style="italic" lengthAdjust="spacing" textLength="62.002" x="444.9979" y="328.7134">&#171;Service&#187;</text><text fill="#000000" font-family="sans-serif" font-size="14" lengthAdjust="spacing" textLength="160.0977" x="395.95" y="345.2017">AudioInteractionService</text></g><!--entity AudioProcessor--><g id="elem_AudioProcessor"><rect fill="#FFFFFF" height="52.9766" rx="2.5" ry="2.5" style="stroke:#181818;stroke-width:0.5;" width="125.4443" x="40.28" y="418.1583"/><text fill="#000000" font-family="sans-serif" font-size="14" font-style="italic" lengthAdjust="spacing" textLength="64.6748" x="70.6648" y="441.6934">&#171;Module&#187;</text><text fill="#000000" font-family="sans-serif" font-size="14" lengthAdjust="spacing" textLength="105.4443" x="50.28" y="458.1817">AudioProcessor</text></g><!--entity Transcriber (Whisper)--><g id="elem_Transcriber (Whisper)"><rect fill="#FFFFFF" height="52.9766" rx="2.5" ry="2.5" style="stroke:#181818;stroke-width:0.5;" width="165.1475" x="200.43" y="418.1583"/><text fill="#000000" font-family="sans-serif" font-size="14" font-style="italic" lengthAdjust="spacing" textLength="64.6748" x="250.6663" y="441.6934">&#171;Module&#187;</text><text fill="#000000" font-family="sans-serif" font-size="14" lengthAdjust="spacing" textLength="145.1475" x="210.43" y="458.1817">Transcriber (Whisper)</text></g><!--entity EmotionRecognizer--><g id="elem_EmotionRecognizer"><rect fill="#FFFFFF" height="52.9766" rx="2.5" ry="2.5" style="stroke:#181818;stroke-width:0.5;" width="151.2705" x="400.36" y="418.1583"/><text fill="#000000" font-family="sans-serif" font-size="14" font-style="italic" lengthAdjust="spacing" textLength="64.6748" x="443.6579" y="441.6934">&#171;Module&#187;</text><text fill="#000000" font-family="sans-serif" font-size="14" lengthAdjust="spacing" textLength="131.2705" x="410.36" y="458.1817">EmotionRecognizer</text></g><!--entity ConversationManager--><g id="elem_ConversationManager"><rect fill="#FFFFFF" height="52.9766" rx="2.5" ry="2.5" style="stroke:#181818;stroke-width:0.5;" width="167.6563" x="586.17" y="418.1583"/><text fill="#000000" font-family="sans-serif" font-size="14" font-style="italic" lengthAdjust="spacing" textLength="64.6748" x="637.6607" y="441.6934">&#171;Module&#187;</text><text fill="#000000" font-family="sans-serif" font-size="14" lengthAdjust="spacing" textLength="147.6563" x="596.17" y="458.1817">ConversationManager</text></g><!--entity ChatModelInterface--><g id="elem_ChatModelInterface"><rect fill="#FFFFFF" height="52.9766" rx="2.5" ry="2.5" style="stroke:#181818;stroke-width:0.5;" width="151.9951" x="789" y="418.1583"/><text fill="#000000" font-family="sans-serif" font-size="14" font-style="italic" lengthAdjust="spacing" textLength="74.0059" x="827.9946" y="441.6934">&#171;Interface&#187;</text><text fill="#000000" font-family="sans-serif" font-size="14" lengthAdjust="spacing" textLength="131.9951" x="799" y="458.1817">ChatModelInterface</text></g><!--entity ChatAgent (GPT)--><g id="elem_ChatAgent (GPT)"><rect fill="#FFFFFF" height="52.9766" rx="2.5" ry="2.5" style="stroke:#181818;stroke-width:0.5;" width="131.6992" x="594.15" y="531.1383"/><text fill="#000000" font-family="sans-serif" font-size="14" font-style="italic" lengthAdjust="spacing" textLength="93.8506" x="613.0743" y="554.6734">&#171;Component&#187;</text><text fill="#000000" font-family="sans-serif" font-size="14" lengthAdjust="spacing" textLength="111.6992" x="604.15" y="571.1617">ChatAgent (GPT)</text></g><!--entity OllamaChatAgent--><g id="elem_OllamaChatAgent"><rect fill="#FFFFFF" height="52.9766" rx="2.5" ry="2.5" style="stroke:#181818;stroke-width:0.5;" width="138.959" x="795.52" y="531.1383"/><text fill="#000000" font-family="sans-serif" font-size="14" font-style="italic" lengthAdjust="spacing" textLength="93.8506" x="818.0742" y="554.6734">&#171;Component&#187;</text><text fill="#000000" font-family="sans-serif" font-size="14" lengthAdjust="spacing" textLength="118.959" x="805.52" y="571.1617">OllamaChatAgent</text></g><!--entity OpenAI API--><g id="elem_OpenAI API"><rect fill="#D3D3D3" height="52.9766" rx="2.5" ry="2.5" style="stroke:#181818;stroke-width:0.5;" width="95.7285" x="542.14" y="733.1083"/><text fill="#000000" font-family="sans-serif" font-size="14" font-style="italic" lengthAdjust="spacing" textLength="70.0752" x="554.9667" y="756.6434">&#171;External&#187;</text><text fill="#000000" font-family="sans-serif" font-size="14" lengthAdjust="spacing" textLength="75.7285" x="552.14" y="773.1317">OpenAI API</text></g><!--entity Whisper AI--><g id="elem_Whisper AI"><rect fill="#D3D3D3" height="52.9766" rx="2.5" ry="2.5" style="stroke:#181818;stroke-width:0.5;" width="92.3105" x="393.84" y="733.1083"/><text fill="#000000" font-family="sans-serif" font-size="14" font-style="italic" lengthAdjust="spacing" textLength="70.0752" x="404.9577" y="756.6434">&#171;External&#187;</text><text fill="#000000" font-family="sans-serif" font-size="14" lengthAdjust="spacing" textLength="72.3105" x="403.84" y="773.1317">Whisper AI</text></g><!--entity Ollama Server--><g id="elem_Ollama Server"><rect fill="#FFFFFF" height="52.9766" rx="2.5" ry="2.5" style="stroke:#181818;stroke-width:0.5;" width="113.7754" x="808.11" y="733.1083"/><text fill="#000000" font-family="sans-serif" font-size="14" font-style="italic" lengthAdjust="spacing" textLength="62.002" x="833.9967" y="756.6434">&#171;Service&#187;</text><text fill="#000000" font-family="sans-serif" font-size="14" lengthAdjust="spacing" textLength="93.7754" x="818.11" y="773.1317">Ollama Server</text></g><!--link REST API Client to Flask Server--><g id="link_REST API Client_Flask Server"><path d="M476,148.8983 C476,157.6358 476,167.8214 476,178.2133 C476,183.4092 476,188.6567 476,193.8005 C476,194.4435 476,195.0849 476,195.7243 C476,195.8842 476,190.0439 476,190.2035 " fill="none" id="REST API Client-to-Flask Server" style="stroke:#181818;stroke-width:1.0;"/><polygon fill="#181818" points="476,196.2035,480,187.2035,476,191.2035,472,187.2035,476,196.2035" style="stroke:#181818;stroke-width:1.0;"/></g><!--link Flask Server to AudioInteractionService--><g id="link_Flask Server_AudioInteractionService"><path d="M476,245.4283 C476,248.5583 476,275.0783 476,299.0183 " fill="none" id="Flask Server-to-AudioInteractionService" style="stroke:#181818;stroke-width:1.0;"/><polygon fill="#181818" points="476,305.0183,480,296.0183,476,300.0183,472,296.0183,476,305.0183" style="stroke:#181818;stroke-width:1.0;"/></g><!--link AudioInteractionService to AudioProcessor--><g id="link_AudioInteractionService_AudioProcessor"><path d="M385.74,358.3883 C327.72,375.0683 250.79,397.4783 183,418.1583 C177.42,419.8583 177.3648,419.8519 171.5648,421.6719 " fill="none" id="AudioInteractionService-to-AudioProcessor" style="stroke:#181818;stroke-width:1.0;"/><polygon fill="#181818" points="165.84,423.4683,175.6247,424.5902,170.6106,421.9713,173.2296,416.9572,165.84,423.4683" style="stroke:#181818;stroke-width:1.0;"/></g><!--link AudioInteractionService to Transcriber (Whisper)--><g id="link_AudioInteractionService_Transcriber (Whisper)"><path d="M431.24,358.4083 C400.28,376.2083 364.4417,396.8179 333.3917,414.6679 " fill="none" id="AudioInteractionService-to-Transcriber (Whisper)" style="stroke:#181818;stroke-width:1.0;"/><polygon fill="#181818" points="328.19,417.6583,337.9861,416.6406,332.5248,415.1663,333.999,409.7049,328.19,417.6583" style="stroke:#181818;stroke-width:1.0;"/></g><!--link AudioInteractionService to EmotionRecognizer--><g id="link_AudioInteractionService_EmotionRecognizer"><path d="M476,358.4083 C476,376.2083 476,393.8083 476,411.6583 " fill="none" id="AudioInteractionService-to-EmotionRecognizer" style="stroke:#181818;stroke-width:1.0;"/><polygon fill="#181818" points="476,417.6583,480,408.6583,476,412.6583,472,408.6583,476,417.6583" style="stroke:#181818;stroke-width:1.0;"/></g><!--link AudioInteractionService to ConversationManager--><g id="link_AudioInteractionService_ConversationManager"><path d="M521,358.4083 C552.11,376.2083 588.1617,396.8295 619.3717,414.6795 " fill="none" id="AudioInteractionService-to-ConversationManager" style="stroke:#181818;stroke-width:1.0;"/><polygon fill="#181818" points="624.58,417.6583,618.7534,409.7178,620.2397,415.1759,614.7816,416.6623,624.58,417.6583" style="stroke:#181818;stroke-width:1.0;"/></g><!--link AudioInteractionService to ChatModelInterface--><g id="link_AudioInteractionService_ChatModelInterface"><path d="M566.22,358.4083 C633.67,377.6483 719.0901,402.0225 782.9301,420.2325 " fill="none" id="AudioInteractionService-to-ChatModelInterface" style="stroke:#181818;stroke-width:1.0;"/><polygon fill="#181818" points="788.7,421.8783,781.1424,415.563,783.8918,420.5068,778.948,423.2561,788.7,421.8783" style="stroke:#181818;stroke-width:1.0;"/></g><!--reverse link ChatModelInterface to ChatAgent (GPT)--><g id="link_ChatModelInterface_ChatAgent (GPT)"><path d="M801.3685,480.0936 C768.4685,497.8936 740.79,512.8883 707.88,530.7083 " fill="none" id="ChatModelInterface-backto-ChatAgent (GPT)" style="stroke:#181818;stroke-width:1.0;stroke-dasharray:7.0,7.0;"/><polygon fill="none" points="817.2,471.5283,798.5134,474.8165,804.2237,485.3708,817.2,471.5283" style="stroke:#181818;stroke-width:1.0;"/></g><!--reverse link ChatModelInterface to OllamaChatAgent--><g id="link_ChatModelInterface_OllamaChatAgent"><path d="M865,489.3883 C865,507.1883 865,512.7883 865,530.6383 " fill="none" id="ChatModelInterface-backto-OllamaChatAgent" style="stroke:#181818;stroke-width:1.0;stroke-dasharray:7.0,7.0;"/><polygon fill="none" points="865,471.3883,859,489.3883,871,489.3883,865,471.3883" style="stroke:#181818;stroke-width:1.0;"/></g><!--link ChatAgent (GPT) to OpenAI API--><g id="link_ChatAgent (GPT)_OpenAI API"><path d="M650.99,584.3583 C637.59,622.6483 614.5125,688.5653 601.0625,726.9853 " fill="none" id="ChatAgent (GPT)-to-OpenAI API" style="stroke:#181818;stroke-width:1.0;"/><polygon fill="#181818" points="599.08,732.6483,605.8291,725.4754,600.7321,727.9291,598.2784,722.8321,599.08,732.6483" style="stroke:#181818;stroke-width:1.0;"/></g><!--link Transcriber (Whisper) to Whisper AI--><g id="link_Transcriber (Whisper)_Whisper AI"><path d="M295.98,471.5283 C325.52,530.3983 394.7591,668.4355 424.3091,727.3255 " fill="none" id="Transcriber (Whisper)-to-Whisper AI" style="stroke:#181818;stroke-width:1.0;"/><polygon fill="#181818" points="427,732.6883,426.5388,722.8502,424.7576,728.2193,419.3885,726.4381,427,732.6883" style="stroke:#181818;stroke-width:1.0;"/></g><!--link OllamaChatAgent to Ollama Server--><g id="link_OllamaChatAgent_Ollama Server"><path d="M865,584.3583 C865,622.6483 865,688.2283 865,726.6483 " fill="none" id="OllamaChatAgent-to-Ollama Server" style="stroke:#181818;stroke-width:1.0;"/><polygon fill="#181818" points="865,732.6483,869,723.6483,865,727.6483,861,723.6483,865,732.6483" style="stroke:#181818;stroke-width:1.0;"/></g><!--SRC=[ZPJ1Rk8m48RlUGehlS2XUO8AAOjeHLMsYA3k0VKmTQR1YcD7jhCjkzjttt420JO9B8U8JBv_F9xVOoUSHFOOnT4gUedcKHAnP6ST5YmsV2iSSbSPPAEfBagjK3ds8l1Z70Gs5we40mNZXq-9sr4kGn9GcSGJf0IUGuR3G8hlK4ctnayNIv6fmg_4wO4c2FPg5awbyF54f1YokxllEiN9XFqE6FqsgrcoPl5opXhgbO2sQA9kdaIsTKc- -oOh3Bw2G96QXVSIRCuID3_H-9ptL0r-Q9DxoOyjWglpR-8g5Nhkwm7kX5PU8JZwLVP_6m5rhCMNHdEqLXjFBNHQoNDeRK1PRiGR6ZQYg2tHZ0VOMQ7ziYlaEbFY5mxbd6f5Ex7WuGKeQjiWkGL7OPJrhjwXsKpxqc7ZpFT-zB1SZpkzRS5dAQ605Xy0WpwxRcydR7Dgnwl7pW8DCsJ5HPkEogChrmNz3btNTTswhkbpxZzKNHS7pVqJHLqhBzF_-ka7XqjTfIoSVHAhGB9zGJQi9oK51szW_RIIYfRm9eU78NqkKSLp7_97uv2Y7Sy70pi2lyxoxFlUvjY_i_XAZjw3MpVjf8eBSrYZ9uiTBuqdpMdVb66cCg7gkwWE-HeMcdEmGhKxhZlOdk3Uww9lS9f2pyHKm5y0]--></g></svg>